Coordinates
version=1
nRows=38
nColumns=12
inDegrees=yes

Units are S.I. units (second, meters, Newtons, ...)
Angles are in degrees

endheader
time	SC_y	SC_z	SC_x	AC_y	AC_z	AC_x	GH_y	GH_z	GH_yy	EL_x	PS_y
       0.0              -38.84          33.42          28.34          68.31         -4.002          12.58         -1.839         -12.48          135.2          97.99          40.92
 0.0006925              -38.84          33.42          28.33          68.31         -4.004          12.58         -1.857         -12.47          135.2          97.98          40.94
  0.001385              -38.84          33.42          28.33           68.3         -4.005          12.58         -1.876         -12.46          135.2          97.97          40.96
  0.002077              -38.84          33.42          28.33           68.3         -4.007          12.58         -1.896         -12.45          135.1          97.96          40.97
   0.00277              -38.84          33.42          28.33          68.29         -4.009          12.58         -1.918         -12.43          135.1          97.96          40.99
  0.003462              -38.84          33.41          28.32          68.28         -4.011          12.58         -1.941         -12.42          135.1          97.95          41.01
  0.004155              -38.84          33.41          28.32          68.28         -4.013          12.59         -1.966         -12.41          135.0          97.94          41.03
  0.004847              -38.84          33.41          28.32          68.27         -4.015          12.59         -1.992         -12.39          135.0          97.93          41.06
   0.00554              -38.84          33.41          28.31          68.26         -4.017          12.59          -2.02         -12.37          134.9          97.91          41.08
  0.006232              -38.84          33.41          28.31          68.25          -4.02          12.59          -2.05         -12.36          134.9           97.9          41.11
  0.006925              -38.84           33.4          28.31          68.24         -4.022          12.59         -2.083         -12.34          134.9          97.89          41.14
  0.007617              -38.84           33.4           28.3          68.24         -4.025          12.59         -2.118         -12.32          134.8          97.87          41.17
   0.00831              -38.84           33.4           28.3          68.22         -4.028          12.59         -2.156          -12.3          134.7          97.86           41.2
  0.009002              -38.84           33.4          28.29          68.21         -4.031          12.59         -2.196         -12.27          134.7          97.84          41.24
  0.009695              -38.84          33.39          28.29           68.2         -4.035           12.6         -2.241         -12.25          134.6          97.82          41.28
   0.01039              -38.84          33.39          28.28          68.19         -4.039           12.6         -2.288         -12.22          134.5           97.8          41.32
   0.01108              -38.84          33.39          28.27          68.17         -4.043           12.6          -2.34         -12.19          134.5          97.78          41.36
   0.01177              -38.84          33.38          28.27          68.16         -4.048           12.6         -2.397         -12.16          134.4          97.76          41.41
   0.01246              -38.84          33.38          28.26          68.14         -4.053           12.6         -2.459         -12.12          134.3          97.73          41.47
   0.01316              -38.84          33.37          28.25          68.12         -4.058          12.61         -2.527         -12.09          134.2          97.71          41.53
   0.01385              -38.84          33.37          28.24           68.1         -4.064          12.61         -2.601         -12.04          134.1          97.68          41.59
   0.01454              -38.84          33.36          28.23          68.08         -4.071          12.61         -2.683          -12.0          133.9          97.64          41.66
   0.01523              -38.84          33.36          28.22          68.06         -4.078          12.61         -2.773         -11.94          133.8           97.6          41.74
   0.01593              -38.83          33.35          28.21          68.03         -4.086          12.62         -2.873         -11.89          133.7          97.56          41.83
   0.01662              -38.83          33.34          28.19           68.0         -4.095          12.62         -2.985         -11.82          133.5          97.52          41.93
   0.01731              -38.83          33.33          28.18          67.97         -4.105          12.63         -3.109         -11.75          133.3          97.47          42.04
     0.018              -38.83          33.32          28.16          67.93         -4.117          12.63         -3.248         -11.67          133.1          97.41          42.16
    0.0187              -38.83          33.31          28.14          67.88         -4.129          12.64         -3.405         -11.58          132.9          97.35           42.3
   0.01939              -38.83           33.3          28.12          67.84         -4.144          12.64         -3.581         -11.48          132.6          97.27          42.45
   0.02008              -38.83          33.29          28.09          67.78          -4.16          12.65         -3.782         -11.37          132.3          97.19          42.63
   0.02077              -38.83          33.27          28.06          67.72         -4.179          12.66         -4.012         -11.24          131.9           97.1          42.83
   0.02147              -38.83          33.25          28.03          67.65           -4.2          12.67         -4.275         -11.09          131.5          96.99          43.06
   0.02216              -38.83          33.23          27.99          67.57         -4.225          12.68         -4.578         -10.91          131.1          96.86          43.32
   0.02285              -38.83          33.21          27.95          67.47         -4.253          12.69         -4.931         -10.71          130.5          96.72          43.63
   0.02354              -38.83          33.18           27.9          67.36         -4.287           12.7         -5.344         -10.48          129.9          96.55           44.0
   0.02424              -38.82          33.15          27.84          67.22         -4.326          12.72         -5.831          -10.2          129.2          96.35          44.42
   0.02493              -38.82          33.11          27.76          67.07         -4.373          12.74         -6.409         -9.867          128.3          96.11          44.93
   0.02562              -38.82          33.06          27.68          66.88         -4.429          12.77         -7.103         -9.471          127.3          95.83          45.54
